<svg width="425.745" height="43.74" viewBox="0 0 425.745 43.74" xmlns="http://www.w3.org/2000/svg"><g id="svgGroup" stroke-linecap="round" fill-rule="evenodd" font-size="9pt" stroke="#000000" stroke-width="0" fill="#69abf2" style="stroke:#000000;stroke-width:0;fill:#69abf2" class=""><path d="M 162.45 33.3 L 159.03 1.935 L 163.44 1.485 L 165.87 28.755 L 176.85 5.085 L 182.205 5.085 L 184.725 28.755 L 196.74 1.62 L 200.52 3.375 L 186.66 33.3 L 181.35 33.3 L 178.785 9.63 L 167.76 33.3 L 162.45 33.3 Z M 25.155 33.3 L 29.79 6.975 L 18.135 26.19 L 13.95 26.19 L 8.685 6.795 L 4.05 33.3 L 0 33.3 L 5.535 1.8 L 11.34 1.8 L 16.65 21.87 L 28.53 1.8 L 34.965 1.8 L 29.43 33.3 L 25.155 33.3 Z M 104.265 33.3 L 99.81 33.3 L 96.3 10.215 L 100.215 9.675 L 102.87 28.8 L 111.375 11.565 L 115.65 11.565 L 117.99 28.8 L 127.44 9.675 L 130.77 11.385 L 119.565 33.3 L 115.11 33.3 L 112.77 16.11 L 104.265 33.3 Z M 53.64 20.52 L 55.485 9.9 L 59.535 9.9 L 55.44 33.57 A 22.142 22.142 0 0 1 54.956 35.741 Q 54.487 37.418 53.798 38.655 A 11.725 11.725 0 0 1 52.764 40.22 Q 52.083 41.082 51.297 41.689 A 7.344 7.344 0 0 1 51.233 41.738 A 9.579 9.579 0 0 1 49.147 42.945 A 8.539 8.539 0 0 1 48.15 43.29 A 12.059 12.059 0 0 1 45.399 43.731 A 11.1 11.1 0 0 1 44.955 43.74 A 12.381 12.381 0 0 1 42.537 43.516 A 8.818 8.818 0 0 1 39.758 42.48 A 14.186 14.186 0 0 1 37.655 40.981 A 11.38 11.38 0 0 1 36.27 39.555 L 39.42 37.215 Q 41.615 40.216 45.192 40.23 A 8.584 8.584 0 0 0 45.225 40.23 A 5.477 5.477 0 0 0 49.074 38.671 A 7.146 7.146 0 0 0 49.185 38.565 A 6.153 6.153 0 0 0 50.284 37.071 Q 51.081 35.598 51.536 33.315 A 22.872 22.872 0 0 0 51.615 32.895 L 52.47 28.125 Q 51.12 30.285 49.05 31.792 A 7.875 7.875 0 0 1 44.364 33.3 A 9.62 9.62 0 0 1 44.28 33.3 Q 42.525 33.3 41.04 32.512 Q 39.555 31.725 38.655 30.24 A 6.159 6.159 0 0 1 37.845 27.957 A 8.081 8.081 0 0 1 37.755 26.73 A 26.211 26.211 0 0 1 37.76 26.236 Q 37.765 25.977 37.775 25.688 A 44.047 44.047 0 0 1 37.778 25.605 Q 37.8 24.975 37.935 24.255 L 40.365 9.9 L 44.415 9.9 L 41.94 24.165 Q 41.805 24.975 41.805 25.695 Q 41.805 27.142 42.391 28.06 A 2.944 2.944 0 0 0 42.952 28.71 Q 44.1 29.7 45.63 29.7 A 5.681 5.681 0 0 0 48.079 29.13 A 7.396 7.396 0 0 0 48.982 28.62 A 8.583 8.583 0 0 0 50.709 27.099 A 11.775 11.775 0 0 0 51.885 25.493 A 11.917 11.917 0 0 0 53.008 23.069 Q 53.395 21.928 53.625 20.606 A 19.449 19.449 0 0 0 53.64 20.52 Z M 136.845 23.985 L 135.225 33.3 L 131.175 33.3 L 135.27 9.9 L 139.185 9.9 L 138.195 15.3 A 11.827 11.827 0 0 1 140.832 11.857 A 11.215 11.215 0 0 1 141.952 10.98 A 9.384 9.384 0 0 1 144.571 9.704 A 8.168 8.168 0 0 1 146.925 9.36 Q 149.985 9.36 151.83 11.228 A 6.245 6.245 0 0 1 153.675 15.753 A 7.889 7.889 0 0 1 153.675 15.795 A 12.129 12.129 0 0 1 153.643 16.638 Q 153.613 17.073 153.553 17.571 A 28.476 28.476 0 0 1 153.405 18.63 L 150.84 33.3 L 146.79 33.3 L 149.265 19.305 Q 149.49 18.225 149.535 17.707 A 12.229 12.229 0 0 0 149.573 17.117 A 9.852 9.852 0 0 0 149.58 16.74 Q 149.58 14.985 148.568 13.95 Q 147.555 12.915 145.89 12.915 A 4.983 4.983 0 0 0 144.381 13.164 Q 143.465 13.454 142.47 14.085 A 9.081 9.081 0 0 0 140.805 15.464 Q 140.124 16.169 139.49 17.079 A 16.945 16.945 0 0 0 139.073 17.708 Q 137.52 20.16 136.845 23.985 Z M 280.89 30.375 L 279.495 33.525 A 7.955 7.955 0 0 1 278.088 33.409 Q 276.664 33.152 275.782 32.332 A 3.642 3.642 0 0 1 274.844 30.863 Q 274.632 30.27 274.55 29.538 A 8.75 8.75 0 0 1 274.5 28.575 Q 273.195 30.735 271.215 32.287 Q 269.235 33.84 266.625 33.84 Q 264.375 33.84 262.395 32.648 A 8.61 8.61 0 0 1 259.453 29.673 A 10.328 10.328 0 0 1 259.222 29.273 A 9.502 9.502 0 0 1 258.227 26.387 A 12.978 12.978 0 0 1 258.03 24.075 A 19.874 19.874 0 0 1 258.289 20.796 A 15.24 15.24 0 0 1 259.065 17.888 A 15.535 15.535 0 0 1 260.45 15.088 A 12.842 12.842 0 0 1 261.832 13.275 A 13.389 13.389 0 0 1 264.231 11.193 A 11.67 11.67 0 0 1 265.657 10.372 A 10.006 10.006 0 0 1 268.633 9.449 A 9.166 9.166 0 0 1 269.91 9.36 A 8.15 8.15 0 0 1 272.051 9.63 A 6.587 6.587 0 0 1 274.027 10.53 A 8.55 8.55 0 0 1 276.111 12.491 A 7.94 7.94 0 0 1 276.705 13.41 L 279.09 0 L 283.14 0 L 278.37 26.955 Q 278.331 27.15 278.309 27.396 A 5.961 5.961 0 0 0 278.302 27.473 A 7.813 7.813 0 0 0 278.28 27.997 A 8.697 8.697 0 0 0 278.28 28.08 A 3.446 3.446 0 0 0 278.337 28.728 Q 278.482 29.485 279 29.857 A 2.592 2.592 0 0 0 279.862 30.254 Q 280.222 30.348 280.647 30.369 A 4.978 4.978 0 0 0 280.89 30.375 Z M 410.58 14.265 L 411.165 10.755 L 415.305 10.755 L 417.465 3.375 L 420.57 3.375 L 419.265 10.755 L 425.745 10.755 L 425.16 14.265 L 418.635 14.265 L 416.745 25.2 A 13.842 13.842 0 0 0 416.658 25.736 A 10.925 10.925 0 0 0 416.61 26.123 Q 416.565 26.55 416.565 26.91 A 4.228 4.228 0 0 0 416.677 27.91 A 2.851 2.851 0 0 0 417.51 29.363 A 3.223 3.223 0 0 0 419.16 30.169 A 4.567 4.567 0 0 0 419.985 30.24 A 7.424 7.424 0 0 0 420.943 30.182 Q 421.642 30.091 422.19 29.857 Q 423.09 29.475 423.81 29.07 L 424.305 32.58 A 7.681 7.681 0 0 1 423.491 32.985 Q 423.066 33.168 422.568 33.332 A 14.546 14.546 0 0 1 422.167 33.458 A 9.036 9.036 0 0 1 420.541 33.777 A 11.607 11.607 0 0 1 419.31 33.84 Q 417.645 33.84 416.093 33.165 Q 414.54 32.49 413.55 31.027 A 5.415 5.415 0 0 1 412.8 29.316 Q 412.62 28.612 412.575 27.788 A 10.325 10.325 0 0 1 412.56 27.225 Q 412.56 26.25 412.734 25.058 A 20.656 20.656 0 0 1 412.74 25.02 L 414.585 14.265 L 410.58 14.265 Z M 385.2 28.485 L 385.56 32.085 Q 384.54 32.561 383.108 32.999 A 32.209 32.209 0 0 1 382.14 33.278 A 15.852 15.852 0 0 1 379.523 33.747 A 20.283 20.283 0 0 1 377.55 33.84 A 11.684 11.684 0 0 1 374.673 33.499 A 9.569 9.569 0 0 1 372.307 32.558 Q 370.035 31.275 368.753 28.868 Q 367.47 26.46 367.47 23.175 A 15.666 15.666 0 0 1 368.413 17.709 A 14.782 14.782 0 0 1 369.022 16.29 Q 370.575 13.14 373.433 11.25 A 11.392 11.392 0 0 1 378.601 9.438 A 14.384 14.384 0 0 1 380.115 9.36 A 11.511 11.511 0 0 1 382.106 9.523 Q 383.295 9.732 384.273 10.209 A 6.993 6.993 0 0 1 384.547 10.35 Q 386.37 11.34 387.36 12.915 Q 388.35 14.49 388.35 16.29 A 8.632 8.632 0 0 1 388.171 18.093 Q 387.902 19.357 387.224 20.323 A 5.512 5.512 0 0 1 387.18 20.385 Q 386.01 22.005 384.165 22.882 A 14.946 14.946 0 0 1 380.449 24.073 A 16.668 16.668 0 0 1 380.182 24.12 A 26.037 26.037 0 0 1 377.464 24.437 A 21.98 21.98 0 0 1 376.11 24.48 Q 374.895 24.48 373.703 24.368 A 48.864 48.864 0 0 1 372.715 24.265 Q 372.116 24.196 371.61 24.12 Q 371.927 26.733 373.323 28.266 A 5.625 5.625 0 0 0 373.725 28.665 A 6.069 6.069 0 0 0 376.875 30.135 A 8.38 8.38 0 0 0 378.225 30.24 Q 380.475 30.24 382.23 29.655 Q 383.985 29.07 385.2 28.485 Z M 72.668 33.512 A 16.111 16.111 0 0 0 76.005 33.84 A 19.107 19.107 0 0 0 78.478 33.685 A 15.004 15.004 0 0 0 83.205 32.288 Q 86.355 30.735 88.538 28.057 Q 90.72 25.38 91.845 22.027 Q 92.97 18.675 92.97 15.075 A 18.432 18.432 0 0 0 92.897 13.417 A 15.138 15.138 0 0 0 91.44 8.078 Q 89.91 4.95 86.985 3.105 A 11.583 11.583 0 0 0 83.167 1.588 A 16.111 16.111 0 0 0 79.83 1.26 A 19.107 19.107 0 0 0 77.357 1.415 A 15.004 15.004 0 0 0 72.63 2.812 Q 69.48 4.365 67.298 7.042 Q 65.115 9.72 63.99 13.072 Q 62.865 16.425 62.865 20.025 A 18.432 18.432 0 0 0 62.938 21.683 A 15.138 15.138 0 0 0 64.395 27.022 Q 65.925 30.15 68.85 31.995 A 11.583 11.583 0 0 0 72.668 33.512 Z M 285.345 33.3 L 290.79 2.25 A 37.393 37.393 0 0 1 293.024 1.853 A 44.756 44.756 0 0 1 294.458 1.665 A 33.106 33.106 0 0 1 296.522 1.496 A 44.089 44.089 0 0 1 298.8 1.44 A 17.207 17.207 0 0 1 301.363 1.62 Q 302.764 1.832 303.931 2.291 A 9.361 9.361 0 0 1 304.875 2.723 A 9.82 9.82 0 0 1 306.967 4.181 A 7.966 7.966 0 0 1 308.498 6.098 Q 309.69 8.19 309.69 10.575 A 12.507 12.507 0 0 1 309.373 13.464 A 9.209 9.209 0 0 1 307.89 16.763 A 10.733 10.733 0 0 1 304.074 20.019 A 13.296 13.296 0 0 1 302.94 20.542 A 17.147 17.147 0 0 1 298.726 21.637 A 22.223 22.223 0 0 1 295.785 21.825 Q 294.705 21.825 293.648 21.713 A 15.533 15.533 0 0 1 292.417 21.534 A 12.651 12.651 0 0 1 291.69 21.375 L 289.62 33.3 L 285.345 33.3 Z M 409.5 11.16 L 407.835 14.625 Q 406.71 13.905 405.405 13.432 Q 404.1 12.96 402.525 12.96 A 7.929 7.929 0 0 0 399.966 13.362 A 7.042 7.042 0 0 0 398.183 14.265 A 8.533 8.533 0 0 0 395.499 17.355 A 10.245 10.245 0 0 0 395.28 17.798 A 11.126 11.126 0 0 0 394.329 21.27 A 13.851 13.851 0 0 0 394.245 22.815 Q 394.245 26.235 395.978 28.237 A 5.685 5.685 0 0 0 399.922 30.209 A 7.934 7.934 0 0 0 400.635 30.24 A 12.266 12.266 0 0 0 402.125 30.154 Q 402.895 30.06 403.562 29.862 A 7.443 7.443 0 0 0 403.65 29.835 A 16.947 16.947 0 0 0 405.193 29.276 A 14.082 14.082 0 0 0 406.035 28.89 L 406.53 32.445 A 16.059 16.059 0 0 1 405.497 32.855 Q 404.946 33.052 404.315 33.242 A 30.092 30.092 0 0 1 403.807 33.39 Q 402.464 33.768 400.66 33.829 A 20.984 20.984 0 0 1 399.96 33.84 A 11.124 11.124 0 0 1 397.129 33.493 A 9.172 9.172 0 0 1 394.807 32.535 Q 392.58 31.23 391.343 28.868 A 10.7 10.7 0 0 1 390.265 25.517 A 14.1 14.1 0 0 1 390.105 23.355 A 16.036 16.036 0 0 1 390.942 18.131 A 14.888 14.888 0 0 1 391.657 16.402 Q 393.21 13.23 396.068 11.295 A 11.222 11.222 0 0 1 401.049 9.468 A 14.462 14.462 0 0 1 402.84 9.36 A 14.798 14.798 0 0 1 404.719 9.474 A 10.821 10.821 0 0 1 406.598 9.877 Q 408.24 10.395 409.5 11.16 Z M 355.32 36.63 L 360.045 9.9 L 364.095 9.9 L 359.415 36.54 A 15.674 15.674 0 0 1 358.91 38.582 Q 358.572 39.621 358.11 40.428 A 6.022 6.022 0 0 1 356.715 42.12 Q 354.735 43.74 351.945 43.74 A 9.484 9.484 0 0 1 350.29 43.601 A 7.8 7.8 0 0 1 349.223 43.335 A 7.66 7.66 0 0 1 347.659 42.629 A 6.744 6.744 0 0 1 347.04 42.21 L 348.66 38.88 A 5.269 5.269 0 0 0 349.832 39.697 A 6.118 6.118 0 0 0 350.145 39.848 Q 351 40.23 351.99 40.23 Q 353.205 40.23 354.105 39.375 Q 355.005 38.52 355.32 36.63 Z M 252.36 0 L 247.95 25.2 Q 247.863 25.766 247.818 26.227 A 13.332 13.332 0 0 0 247.815 26.258 A 11.187 11.187 0 0 0 247.784 26.649 Q 247.774 26.828 247.771 26.987 A 6.147 6.147 0 0 0 247.77 27.09 A 4.073 4.073 0 0 0 247.884 28.082 A 2.772 2.772 0 0 0 248.692 29.475 A 3.126 3.126 0 0 0 250.204 30.237 A 4.544 4.544 0 0 0 251.145 30.33 Q 251.91 30.33 252.675 30.15 A 6.748 6.748 0 0 0 253.621 29.856 A 5.743 5.743 0 0 0 254.07 29.655 L 254.475 32.94 Q 253.665 33.345 252.585 33.592 Q 251.505 33.84 250.245 33.84 A 7.819 7.819 0 0 1 247.778 33.464 A 6.728 6.728 0 0 1 245.633 32.287 Q 243.72 30.735 243.72 27.585 Q 243.72 26.415 243.9 25.29 L 248.31 0 L 252.36 0 Z M 225.495 33.3 L 228.465 16.47 Q 228.504 16.275 228.526 16.029 A 5.961 5.961 0 0 0 228.533 15.952 A 7.813 7.813 0 0 0 228.555 15.428 A 8.697 8.697 0 0 0 228.555 15.345 A 3.446 3.446 0 0 0 228.498 14.697 Q 228.353 13.94 227.835 13.567 A 2.592 2.592 0 0 0 226.973 13.171 Q 226.613 13.077 226.188 13.056 A 4.978 4.978 0 0 0 225.945 13.05 L 227.34 9.9 Q 229.725 9.9 231.008 11.048 A 3.652 3.652 0 0 1 232.078 12.799 Q 232.25 13.394 232.283 14.109 A 7.467 7.467 0 0 1 232.29 14.445 L 232.29 15.345 A 14.17 14.17 0 0 1 233.275 13.361 Q 233.883 12.357 234.604 11.627 A 6.986 6.986 0 0 1 235.642 10.755 A 8.061 8.061 0 0 1 240.219 9.36 A 9.722 9.722 0 0 1 240.3 9.36 A 11.404 11.404 0 0 1 241.093 9.386 Q 241.467 9.412 241.792 9.464 A 5.884 5.884 0 0 1 242.078 9.517 Q 242.646 9.638 243.069 9.798 A 4.095 4.095 0 0 1 243.315 9.9 L 241.515 13.86 Q 240.975 13.635 240.39 13.545 A 7.202 7.202 0 0 0 239.844 13.483 Q 239.47 13.455 239.04 13.455 A 4.915 4.915 0 0 0 236.999 13.915 A 6.885 6.885 0 0 0 235.822 14.602 Q 234.225 15.75 232.943 18.405 Q 232.081 20.189 231.432 22.866 A 44.883 44.883 0 0 0 230.85 25.695 L 229.545 33.3 L 225.495 33.3 Z M 310.995 33.3 L 313.965 16.47 Q 314.004 16.275 314.026 16.029 A 5.961 5.961 0 0 0 314.033 15.952 A 7.813 7.813 0 0 0 314.055 15.428 A 8.697 8.697 0 0 0 314.055 15.345 A 3.446 3.446 0 0 0 313.998 14.697 Q 313.853 13.94 313.335 13.567 A 2.592 2.592 0 0 0 312.473 13.171 Q 312.113 13.077 311.688 13.056 A 4.978 4.978 0 0 0 311.445 13.05 L 312.84 9.9 Q 315.225 9.9 316.508 11.048 A 3.652 3.652 0 0 1 317.578 12.799 Q 317.75 13.394 317.783 14.109 A 7.467 7.467 0 0 1 317.79 14.445 L 317.79 15.345 A 14.17 14.17 0 0 1 318.775 13.361 Q 319.383 12.357 320.104 11.627 A 6.986 6.986 0 0 1 321.142 10.755 A 8.061 8.061 0 0 1 325.719 9.36 A 9.722 9.722 0 0 1 325.8 9.36 A 11.404 11.404 0 0 1 326.593 9.386 Q 326.967 9.412 327.292 9.464 A 5.884 5.884 0 0 1 327.578 9.517 Q 328.146 9.638 328.569 9.798 A 4.095 4.095 0 0 1 328.815 9.9 L 327.015 13.86 Q 326.475 13.635 325.89 13.545 A 7.202 7.202 0 0 0 325.344 13.483 Q 324.97 13.455 324.54 13.455 A 4.915 4.915 0 0 0 322.499 13.915 A 6.885 6.885 0 0 0 321.322 14.602 Q 319.725 15.75 318.443 18.405 Q 317.581 20.189 316.932 22.866 A 44.883 44.883 0 0 0 316.35 25.695 L 315.045 33.3 L 310.995 33.3 Z M 209.07 33.84 Q 205.74 33.84 203.31 32.49 Q 200.88 31.14 199.553 28.732 A 10.716 10.716 0 0 1 198.289 24.573 A 13.196 13.196 0 0 1 198.225 23.265 A 16.512 16.512 0 0 1 198.784 18.899 A 14.249 14.249 0 0 1 199.823 16.2 Q 201.42 13.05 204.3 11.205 Q 207.18 9.36 211.095 9.36 Q 214.425 9.36 216.855 10.71 Q 219.285 12.06 220.613 14.445 A 10.485 10.485 0 0 1 221.835 18.245 A 13.237 13.237 0 0 1 221.94 19.935 A 16.494 16.494 0 0 1 221.325 24.5 A 14.617 14.617 0 0 1 220.365 26.977 Q 218.79 30.15 215.888 31.995 A 11.792 11.792 0 0 1 210.993 33.721 A 15.13 15.13 0 0 1 209.07 33.84 Z M 339.39 33.84 Q 336.06 33.84 333.63 32.49 Q 331.2 31.14 329.873 28.732 A 10.716 10.716 0 0 1 328.609 24.573 A 13.196 13.196 0 0 1 328.545 23.265 A 16.512 16.512 0 0 1 329.104 18.899 A 14.249 14.249 0 0 1 330.143 16.2 Q 331.74 13.05 334.62 11.205 Q 337.5 9.36 341.415 9.36 Q 344.745 9.36 347.175 10.71 Q 349.605 12.06 350.933 14.445 A 10.485 10.485 0 0 1 352.155 18.245 A 13.237 13.237 0 0 1 352.26 19.935 A 16.494 16.494 0 0 1 351.645 24.5 A 14.617 14.617 0 0 1 350.685 26.977 Q 349.11 30.15 346.208 31.995 A 11.792 11.792 0 0 1 341.313 33.721 A 15.13 15.13 0 0 1 339.39 33.84 Z M 79.47 4.95 Q 76.59 4.95 74.318 6.165 Q 72.045 7.38 70.47 9.495 A 15.839 15.839 0 0 0 68.089 14.182 A 17.755 17.755 0 0 0 68.062 14.265 Q 67.23 16.92 67.23 19.755 A 13.899 13.899 0 0 0 67.595 22.993 A 11.841 11.841 0 0 0 68.265 24.998 Q 69.3 27.36 71.348 28.755 Q 73.395 30.15 76.365 30.15 Q 79.245 30.15 81.518 28.935 Q 83.79 27.72 85.365 25.605 A 15.839 15.839 0 0 0 87.746 20.918 A 17.755 17.755 0 0 0 87.773 20.835 Q 88.605 18.18 88.605 15.345 A 13.899 13.899 0 0 0 88.24 12.107 A 11.841 11.841 0 0 0 87.57 10.102 Q 86.535 7.74 84.51 6.345 A 7.69 7.69 0 0 0 81.674 5.163 A 10.851 10.851 0 0 0 79.47 4.95 Z M 209.205 30.24 A 9.167 9.167 0 0 0 211.49 29.967 A 7.172 7.172 0 0 0 213.817 28.912 A 8.589 8.589 0 0 0 216.632 25.613 A 10.192 10.192 0 0 0 216.765 25.335 A 11.348 11.348 0 0 0 217.727 21.739 A 13.972 13.972 0 0 0 217.8 20.295 A 9.069 9.069 0 0 0 217.551 18.13 A 7.553 7.553 0 0 0 216.99 16.583 Q 216.18 14.94 214.65 13.95 A 6.075 6.075 0 0 0 212.371 13.077 A 8.172 8.172 0 0 0 210.96 12.96 A 8.916 8.916 0 0 0 208.557 13.271 A 7.305 7.305 0 0 0 206.37 14.287 A 8.576 8.576 0 0 0 203.433 17.795 A 10.156 10.156 0 0 0 203.4 17.865 A 11.348 11.348 0 0 0 202.438 21.461 A 13.972 13.972 0 0 0 202.365 22.905 A 8.793 8.793 0 0 0 202.681 25.296 A 7.777 7.777 0 0 0 203.175 26.595 Q 203.985 28.26 205.515 29.25 A 6.075 6.075 0 0 0 207.794 30.123 A 8.172 8.172 0 0 0 209.205 30.24 Z M 339.525 30.24 A 9.167 9.167 0 0 0 341.81 29.967 A 7.172 7.172 0 0 0 344.137 28.912 A 8.589 8.589 0 0 0 346.952 25.613 A 10.192 10.192 0 0 0 347.085 25.335 A 11.348 11.348 0 0 0 348.047 21.739 A 13.972 13.972 0 0 0 348.12 20.295 A 9.069 9.069 0 0 0 347.871 18.13 A 7.553 7.553 0 0 0 347.31 16.583 Q 346.5 14.94 344.97 13.95 A 6.075 6.075 0 0 0 342.691 13.077 A 8.172 8.172 0 0 0 341.28 12.96 A 8.916 8.916 0 0 0 338.877 13.271 A 7.305 7.305 0 0 0 336.69 14.287 A 8.576 8.576 0 0 0 333.753 17.795 A 10.156 10.156 0 0 0 333.72 17.865 A 11.348 11.348 0 0 0 332.758 21.461 A 13.972 13.972 0 0 0 332.685 22.905 A 8.793 8.793 0 0 0 333.001 25.296 A 7.777 7.777 0 0 0 333.495 26.595 Q 334.305 28.26 335.835 29.25 A 6.075 6.075 0 0 0 338.114 30.123 A 8.172 8.172 0 0 0 339.525 30.24 Z M 275.265 21.51 L 276.075 16.875 A 8.045 8.045 0 0 0 274.941 15.102 A 6.721 6.721 0 0 0 273.645 13.927 Q 272.115 12.87 270.27 12.87 A 6.685 6.685 0 0 0 266.862 13.817 A 8.331 8.331 0 0 0 266.332 14.152 A 8.511 8.511 0 0 0 264.105 16.426 A 11.024 11.024 0 0 0 263.317 17.798 Q 262.238 20.019 262.174 23.097 A 18.833 18.833 0 0 0 262.17 23.49 A 10.253 10.253 0 0 0 262.295 25.136 Q 262.484 26.296 262.958 27.202 A 6.241 6.241 0 0 0 263.869 28.524 A 5.087 5.087 0 0 0 265.028 29.475 A 5.359 5.359 0 0 0 266.759 30.15 A 4.957 4.957 0 0 0 267.705 30.24 A 5.454 5.454 0 0 0 270.429 29.499 A 6.873 6.873 0 0 0 270.968 29.16 A 8.426 8.426 0 0 0 272.668 27.568 A 11.255 11.255 0 0 0 273.667 26.122 A 12.173 12.173 0 0 0 274.784 23.552 A 15.907 15.907 0 0 0 275.265 21.51 Z M 294.525 5.31 L 292.32 17.775 A 10.109 10.109 0 0 0 293.569 18.062 A 12.204 12.204 0 0 0 294.278 18.158 Q 295.335 18.27 296.37 18.27 A 18.093 18.093 0 0 0 298.86 18.111 Q 301.685 17.717 303.231 16.349 A 5.366 5.366 0 0 0 303.345 16.245 A 6.725 6.725 0 0 0 305.5 11.363 A 8.963 8.963 0 0 0 305.505 11.07 Q 305.505 8.415 303.638 6.705 Q 301.996 5.202 299.154 5.02 A 12.604 12.604 0 0 0 298.35 4.995 Q 297.306 4.995 296.478 5.061 A 15.519 15.519 0 0 0 296.212 5.085 Q 295.29 5.175 294.525 5.31 Z M 379.8 12.78 A 7.248 7.248 0 0 0 376.799 13.4 A 7.055 7.055 0 0 0 375.975 13.838 Q 374.265 14.895 373.163 16.717 A 10.832 10.832 0 0 0 371.91 19.812 A 13.033 13.033 0 0 0 371.7 20.88 Q 372.735 21.06 373.793 21.173 A 19.677 19.677 0 0 0 375.046 21.263 A 25.361 25.361 0 0 0 376.11 21.285 A 22.142 22.142 0 0 0 378.319 21.182 Q 379.449 21.068 380.393 20.83 A 9.071 9.071 0 0 0 382.095 20.227 Q 383.975 19.326 384.252 17.328 A 5.264 5.264 0 0 0 384.3 16.605 A 3.49 3.49 0 0 0 383.194 14.029 A 4.66 4.66 0 0 0 383.062 13.905 A 4.22 4.22 0 0 0 381.044 12.901 A 6.078 6.078 0 0 0 379.8 12.78 Z M 362.256 5.816 A 3.403 3.403 0 0 0 363.015 5.895 A 3.985 3.985 0 0 0 363.102 5.894 A 3.036 3.036 0 0 0 365.265 4.995 A 2.962 2.962 0 0 0 365.993 3.825 A 3.534 3.534 0 0 0 366.165 2.7 Q 366.165 1.71 365.513 0.968 A 2.002 2.002 0 0 0 365.244 0.713 Q 364.873 0.422 364.359 0.304 A 3.403 3.403 0 0 0 363.6 0.225 A 4.026 4.026 0 0 0 363.43 0.229 A 3.059 3.059 0 0 0 361.35 1.103 A 2.861 2.861 0 0 0 360.587 2.381 A 3.742 3.742 0 0 0 360.45 3.42 Q 360.45 4.41 361.103 5.153 A 2.002 2.002 0 0 0 361.371 5.407 Q 361.742 5.698 362.256 5.816 Z"/></g></svg>